HIERARCHY
ROOT Hips
{
    OFFSET 0.000000 0.000000 0.000000
    CHANNELS 6 Xposition Yposition Zposition Zrotation Xrotation Yrotation
    JOINT Spine
    {
        OFFSET -0.000000 14.517291 0.000000
        CHANNELS 3 Zrotation Xrotation Yrotation
        JOINT Spine1
        {
            OFFSET -0.000000 37.558300 0.000000
            CHANNELS 3 Zrotation Xrotation Yrotation
            JOINT Neck
            {
                OFFSET -0.000000 37.404057 3.400369
                CHANNELS 3 Zrotation Xrotation Yrotation
                JOINT Head
                {
                    OFFSET -0.000000 24.785618 -3.540803
                    CHANNELS 3 Zrotation Xrotation Yrotation
                    End Site
                    {
                        OFFSET -0.000000 35.408028 0.000000
                    }
                }
            }
            JOINT LeftShoulder
            {
                OFFSET 6.992933 33.973492 -0.192664
                CHANNELS 3 Zrotation Xrotation Yrotation
                JOINT LeftArm
                {
                    OFFSET 21.527611 0.000000 0.000000
                    CHANNELS 3 Zrotation Xrotation Yrotation
                    JOINT LeftForeArm
                    {
                        OFFSET 56.353916 0.000000 0.000000
                        CHANNELS 3 Zrotation Xrotation Yrotation
                        JOINT LeftHand
                        {
                            OFFSET 47.774071 0.000000 0.000000
                            CHANNELS 3 Zrotation Xrotation Yrotation
                            End Site
                            {
                                OFFSET 26.556021 0.000000 0.000000
                            }
                        }
                    }
                }
            }
            JOINT RightShoulder
            {
                OFFSET -7.065357 33.973492 -0.192664
                CHANNELS 3 Zrotation Xrotation Yrotation
                JOINT RightArm
                {
                    OFFSET -21.527611 0.000000 0.000000
                    CHANNELS 3 Zrotation Xrotation Yrotation
                    JOINT RightForeArm
                    {
                        OFFSET -56.353916 0.000000 0.000000
                        CHANNELS 3 Zrotation Xrotation Yrotation
                        JOINT RightHand
                        {
                            OFFSET -47.774071 0.000000 0.000000
                            CHANNELS 3 Zrotation Xrotation Yrotation
                            End Site
                            {
                                OFFSET -26.556021 0.000000 0.000000
                            }
                        }
                    }
                }
            }
        }
    }
    JOINT LeftUpLeg
    {
        OFFSET 17.704014 0.000000 0.000000
        CHANNELS 3 Zrotation Xrotation Yrotation
        JOINT LeftLeg
        {
            OFFSET -0.000000 -81.181816 0.000000
            CHANNELS 3 Zrotation Xrotation Yrotation
            JOINT LeftFoot
            {
                OFFSET -0.000000 -62.821102 0.000000
                CHANNELS 3 Zrotation Xrotation Yrotation
                JOINT LeftToeBase
                {
                    OFFSET -0.000000 -11.507608 26.556021
                    CHANNELS 3 Zrotation Xrotation Yrotation
                    End Site
                    {
                        OFFSET -0.000000 0.000000 7.081605
                    }
                }
            }
        }
    }
    JOINT RightUpLeg
    {
        OFFSET -17.704014 0.000000 0.000000
        CHANNELS 3 Zrotation Xrotation Yrotation
        JOINT RightLeg
        {
            OFFSET -0.000000 -81.181816 0.000000
            CHANNELS 3 Zrotation Xrotation Yrotation
            JOINT RightFoot
            {
                OFFSET -0.000000 -62.821102 0.000000
                CHANNELS 3 Zrotation Xrotation Yrotation
                JOINT RightToeBase
                {
                    OFFSET -0.000000 -11.507608 26.556021
                    CHANNELS 3 Zrotation Xrotation Yrotation
                    End Site
                    {
                        OFFSET -0.000000 0.000000 7.081605
                    }
                }
            }
        }
    }
}
MOTION
Frames:    4
Frame Time:    0.008333
-10.672237    152.848251    -98.332748    2.649487    -5.036683    45.887371    -1.665913    -0.815086    0.164020    5.047086    5.307470    -0.173909    -11.802463    5.935678    -20.075340    20.675264    -0.339580    -16.872746    9.973186    2.259314    -10.619898    -26.560120    32.981064    25.345339    -14.908444    0.983951    -129.802689    -12.298500    -28.201649    -22.746281    -0.671633    12.559509    -7.231876    38.408905    13.784728    42.758022    -11.843459    3.610977    36.188465    -28.029396    -0.118166    29.781155    16.385145    -1.182402    -5.087759    -18.192045    38.594711    -20.260439    7.480921    -30.431164    50.791313    0.000000    0.000000    0.000000    -24.950174    -14.842576    -25.677069    9.618931    28.540928    -18.720530    7.700562    7.696400    -7.073865    0.000000    0.000000    0.000000    
-10.664020    152.850388    -98.364113    2.640886    -5.031810    45.883278    -1.659061    -0.814428    0.150490    5.047448    5.321381    -0.179417    -11.832476    5.914887    -20.081816    20.690907    -0.326992    -16.874418    9.963722    2.283039    -10.623593    -26.576693    33.036137    25.410326    -14.966658    1.091008    -129.798355    -12.302448    -28.222439    -22.763929    -0.683784    12.554461    -7.214229    38.441631    13.769835    42.757679    -11.845700    3.598579    36.208538    -28.028519    -0.129114    29.788090    16.378193    -1.195722    -5.084430    -18.193508    38.597759    -20.269056    7.480022    -30.446825    50.801838    0.000000    0.000000    0.000000    -24.959459    -14.848566    -25.660952    9.633583    28.511850    -18.743034    7.714298    7.729620    -7.076244    0.000000    0.000000    0.000000    
-10.657821    152.850754    -98.393311    2.633417    -5.033844    45.866085    -1.651230    -0.806543    0.150592    5.043388    5.335827    -0.180349    -11.841304    5.916018    -20.087301    20.706261    -0.347082    -16.873671    9.961803    2.314635    -10.628600    -26.597906    33.092255    25.435646    -14.998641    1.153383    -129.812561    -12.244183    -28.256769    -22.739639    -0.672110    12.551078    -7.212219    38.445911    13.769072    42.768326    -11.871645    3.574697    36.218559    -28.036940    -0.143862    29.781240    16.375967    -1.204117    -5.077974    -18.205816    38.608093    -20.254593    7.497734    -30.442661    50.802921    0.000000    0.000000    0.000000    -24.962784    -14.855536    -25.628735    9.653481    28.484499    -18.776209    7.719157    7.772601    -7.069319    0.000000    0.000000    0.000000    
-10.652595    152.851364    -98.423409    2.627090    -5.026998    45.848709    -1.656455    -0.804813    0.150184    5.046771    5.349989    -0.181216    -11.819315    5.874769    -20.088867    20.654533    -0.328236    -16.883720    9.954585    2.322305    -10.656667    -26.634445    33.144802    25.471590    -15.019062    1.204902    -129.820969    -12.240623    -28.262924    -22.713047    -0.667227    12.560718    -7.210662    38.426105    13.801599    42.798328    -11.924160    3.520492    36.216198    -27.980988    -0.153741    29.738605    16.364285    -1.214976    -5.068843    -18.210482    38.610825    -20.235807    7.509566    -30.436995    50.795403    0.000000    0.000000    0.000000    -24.973488    -14.873147    -25.614189    9.664432    28.466665    -18.799685    7.707692    7.815657    -7.060429    0.000000    0.000000    0.000000    
